# xmcd
#
# Track frame offsets:
#	150
#	14128
#	29709
#	41643
#	55757
#	70250
#	91956
#	105463
#	116527
#	127242
#	136537
#	148162
#	165762
#	178980
#	191462
#	212772
#	224544
#	234352
#	244889
#	255651
#
# Disc length: 3574 seconds
#
# Revision: 0
# Processed by: cddbd v1.5.2PL0 Copyright (c) Steve Scherf et al.
# Submitted via: EasyCDDAExtractor 10.0.1.1
#
DISCID=290df414
DTITLE=Various Artist - Yesterday once more - Rock n Roll Day
DYEAR=2008
DGENRE=Country
TTITLE0=Van Morrison - Brown Eyed Girl
TTITLE1=Lobo - Rock and Roll Days
TTITLE2=Dean MArtin - Gentle on my mind
TTITLE3=Middle of Road - Soley soley
TTITLE4=Daniel Boone - Beautiful Sunday
TTITLE5=5th Dimension - Aquarius - Let the sunshine in
TTITLE6=Jose Feliciano - Chico and the man
TTITLE7=Little Eva - The Locomotion
TTITLE8=The Driffters - Dance with me
TTITLE9=Art Garfunkel - Craying in the rain
TTITLE10=John Travolta - Sandy
TTITLE11=The Carpenters - Yesterday once more
TTITLE12=Donovan - Catch the wind
TTITLE13=Peter. Paul and Mary - 500 miles
TTITLE14=Melanie - Carolina in my mind
TTITLE15=Christie - Yellow river
TTITLE16=The Seartchers - Alright
TTITLE17=Del Shannon - Runaway
TTITLE18=The Everly Brothers - Bye bye love
TTITLE19=The Monkees - Last train to Clarksville
EXTD=
EXTT0=
EXTT1=
EXTT2=
EXTT3=
EXTT4=
EXTT5=
EXTT6=
EXTT7=
EXTT8=
EXTT9=
EXTT10=
EXTT11=
EXTT12=
EXTT13=
EXTT14=
EXTT15=
EXTT16=
EXTT17=
EXTT18=
EXTT19=
PLAYORDER=
